<svg width="165" height="38" viewBox="0 0 165 38" fill="none" xmlns="http://www.w3.org/2000/svg">
<path d="M3.86266 5.21943C1.08343 5.98138 -0.56588 8.90428 0.178811 11.7479L1.53947 16.9436C2.04827 18.8865 3.54298 20.2897 5.32528 20.7407C5.87671 20.8802 6.35562 20.4171 6.35562 19.8482V17.1209C6.35562 13.1957 9.46559 10.0136 13.3019 10.0136H13.8859C14.5411 10.0136 15.0192 9.39411 14.8533 8.7603L14.6002 7.79414C13.8555 4.95052 10.9988 3.26299 8.21962 4.02493L3.86266 5.21943Z" fill="#293829"/>
<path d="M13.3019 13.5673C11.3837 13.5673 9.82874 15.1583 9.82874 17.1209V33.1123C9.82874 35.075 11.3837 36.666 13.3019 36.666H17.0905C18.1951 36.666 19.0905 35.7706 19.0905 34.666V29.878C19.0905 27.9154 20.6455 26.3244 22.5637 26.3244H23.7214C25.6396 26.3244 27.1946 27.9154 27.1946 29.878V34.666C27.1946 35.7706 28.09 36.666 29.1946 36.666H32.9832C34.9013 36.666 36.4563 35.075 36.4563 33.1123V17.1209C36.4563 15.1583 34.9013 13.5673 32.9832 13.5673H13.3019Z" fill="#293829"/>
<path fill-rule="evenodd" clip-rule="evenodd" d="M137.592 36.666H125.874V35.364L129.612 32.424V6.594L125.874 3.99V2.688L133.056 0H134.652V33.516L138.432 34.986L137.592 36.666ZM50.1339 34.986L49.2939 36.666H40V32.9942C39.9971 32.964 39.9955 32.9328 39.9954 32.9007L39.9295 17.1209C39.9295 13.1957 36.8195 10.0136 32.9832 10.0136H32.068C31.4129 10.0136 30.9347 9.3941 31.1007 8.7603L31.3998 7.61817C32.0683 5.06538 34.4389 3.44429 36.9275 3.69065L36.9459 3.654H49.7139V4.956L45.7239 8.064V33.474L50.1339 34.986ZM68.7399 36.666H61.1379L48.1179 20.118L61.0119 8.862L56.1399 5.334L56.9799 3.654H68.2779V4.956L53.1579 18.144L64.7079 32.592L69.5799 34.986L68.7399 36.666ZM85.7226 13.944C87.5706 13.944 89.2226 14.434 90.6786 15.414C92.1626 16.366 93.3106 17.668 94.1226 19.32C94.9626 20.972 95.3826 22.792 95.3826 24.78C95.3826 26.936 94.7246 28.966 93.4086 30.87C92.0926 32.746 90.4406 34.258 88.4526 35.406C86.4926 36.526 84.5886 37.086 82.7406 37.086C80.8926 37.086 79.2266 36.61 77.7426 35.658C76.2866 34.678 75.1386 33.362 74.2986 31.71C73.4866 30.058 73.0806 28.238 73.0806 26.25C73.0806 24.094 73.7386 22.078 75.0546 20.202C76.3706 18.298 78.0086 16.786 79.9686 15.666C81.9566 14.518 83.8746 13.944 85.7226 13.944ZM83.2866 17.472C80.1226 17.472 78.5406 19.726 78.5406 24.234C78.5406 26.894 79.1146 29.12 80.2626 30.912C81.4106 32.676 83.0486 33.558 85.1766 33.558C88.3406 33.558 89.9226 31.29 89.9226 26.754C89.9226 24.122 89.3486 21.924 88.2006 20.16C87.0526 18.368 85.4146 17.472 83.2866 17.472ZM114.53 36.666H122.51L123.35 34.986L119.57 33.516V21.252C119.57 18.872 118.87 17.066 117.47 15.834C116.07 14.574 114.096 13.944 111.548 13.944C109.98 13.944 108.636 14.056 107.516 14.28L101.468 19.068L102.728 20.664C105.248 18.564 107.376 17.514 109.112 17.514C110.792 17.514 112.108 17.892 113.06 18.648C114.04 19.404 114.53 20.692 114.53 22.512V25.2H105.038C103.694 26.068 102.658 26.992 101.93 27.972C101.202 28.952 100.838 29.946 100.838 30.954C100.838 32.634 101.37 34.076 102.434 35.28C103.526 36.484 105.276 37.086 107.684 37.086C108.524 37.086 109.224 36.974 109.784 36.75L114.53 33.012V36.666ZM114.53 31.164C112.57 32.732 110.736 33.516 109.028 33.516C108.132 33.516 107.418 33.152 106.886 32.424C106.354 31.668 106.088 30.772 106.088 29.736C106.088 29.204 106.158 28.714 106.298 28.266C106.466 27.818 106.732 27.37 107.096 26.922H114.53V31.164ZM156.12 36.666H164.1L164.94 34.986L161.16 33.516V21.252C161.16 18.872 160.46 17.066 159.06 15.834C157.66 14.574 155.686 13.944 153.138 13.944C151.57 13.944 150.226 14.056 149.106 14.28L143.058 19.068L144.318 20.664C146.838 18.564 148.966 17.514 150.702 17.514C152.382 17.514 153.698 17.892 154.65 18.648C155.63 19.404 156.12 20.692 156.12 22.512V25.2H146.628C145.284 26.068 144.248 26.992 143.52 27.972C142.792 28.952 142.428 29.946 142.428 30.954C142.428 32.634 142.96 34.076 144.024 35.28C145.116 36.484 146.866 37.086 149.274 37.086C150.114 37.086 150.814 36.974 151.374 36.75L156.12 33.012V36.666ZM156.12 31.164C154.16 32.732 152.326 33.516 150.618 33.516C149.722 33.516 149.008 33.152 148.476 32.424C147.944 31.668 147.678 30.772 147.678 29.736C147.678 29.204 147.748 28.714 147.888 28.266C148.056 27.818 148.322 27.37 148.686 26.922H156.12V31.164Z" fill="#293829"/>
</svg>
